M48
; DRILL file {KiCad 7.0.6} date Sat 12 Aug 2023 13:21:44 BST
; FORMAT={-:-/ absolute / inch / decimal}
; #@! TF.CreationDate,2023-08-12T13:21:44+01:00
; #@! TF.GenerationSoftware,Kicad,Pcbnew,7.0.6
; #@! TF.FileFunction,NonPlated,1,2,NPTH
FMAT,2
INCH
; #@! TA.AperFunction,NonPlated,NPTH,ComponentDrill
T1C0.0315
; #@! TA.AperFunction,NonPlated,NPTH,ComponentDrill
T2C0.0354
; #@! TA.AperFunction,NonPlated,NPTH,ComponentDrill
T3C0.0709
; #@! TA.AperFunction,NonPlated,NPTH,ComponentDrill
T4C0.1339
%
G90
G05
T1
X6.3821Y-4.9537
X6.6577Y-4.9537
T2
X6.4327Y-3.3858
X6.4327Y-3.3858
X6.5508Y-3.3858
X6.5508Y-3.3858
T3
X2.5878Y-3.4346
X2.5878Y-4.1039
X2.5878Y-4.7732
X3.0208Y-3.4346
X3.0208Y-4.1039
X3.0208Y-4.7732
X3.2964Y-2.9622
X3.2964Y-3.6315
X3.2964Y-4.3008
X3.7295Y-2.9622
X3.7295Y-3.6315
X3.7295Y-4.3008
X4.0051Y-2.726
X4.0051Y-3.3953
X4.0051Y-4.0645
X4.4382Y-2.726
X4.4382Y-3.3953
X4.4382Y-4.0645
X4.7137Y-3.6512
X4.7137Y-4.3205
X4.7137Y-2.9819
X5.1109Y-5.0597
X5.1468Y-3.6512
X5.1468Y-4.3205
X5.1468Y-2.9819
X5.4224Y-3.0803
X5.4224Y-3.7496
X5.4224Y-4.4189
X5.5292Y-5.1718
X5.8555Y-3.0803
X5.8555Y-3.7496
X5.8555Y-4.4189
X5.8623Y-5.3098
X6.2374Y-5.5263
T4
X2.8043Y-3.4346
X2.8043Y-4.1039
X2.8043Y-4.7732
X3.513Y-2.9622
X3.513Y-3.6315
X3.513Y-4.3008
X4.2216Y-2.726
X4.2216Y-3.3953
X4.2216Y-4.0645
X4.9303Y-3.6512
X4.9303Y-4.3205
X4.9303Y-2.9819
X5.32Y-5.1157
X5.639Y-3.0803
X5.639Y-3.7496
X5.639Y-4.4189
X6.0499Y-5.418
T0
M30
