G04 #@! TF.GenerationSoftware,KiCad,Pcbnew,7.0.6*
G04 #@! TF.CreationDate,2023-08-12T13:21:49+01:00*
G04 #@! TF.ProjectId,ferris_sweep,66657272-6973-45f7-9377-6565702e6b69,0.1*
G04 #@! TF.SameCoordinates,Original*
G04 #@! TF.FileFunction,Soldermask,Bot*
G04 #@! TF.FilePolarity,Negative*
%FSLAX46Y46*%
G04 Gerber Fmt 4.6, Leading zero omitted, Abs format (unit mm)*
G04 Created by KiCad (PCBNEW 7.0.6) date 2023-08-12 13:21:49*
%MOMM*%
%LPD*%
G01*
G04 APERTURE LIST*
G04 Aperture macros list*
%AMRoundRect*
0 Rectangle with rounded corners*
0 $1 Rounding radius*
0 $2 $3 $4 $5 $6 $7 $8 $9 X,Y pos of 4 corners*
0 Add a 4 corners polygon primitive as box body*
4,1,4,$2,$3,$4,$5,$6,$7,$8,$9,$2,$3,0*
0 Add four circle primitives for the rounded corners*
1,1,$1+$1,$2,$3*
1,1,$1+$1,$4,$5*
1,1,$1+$1,$6,$7*
1,1,$1+$1,$8,$9*
0 Add four rect primitives between the rounded corners*
20,1,$1+$1,$2,$3,$4,$5,0*
20,1,$1+$1,$4,$5,$6,$7,0*
20,1,$1+$1,$6,$7,$8,$9,0*
20,1,$1+$1,$8,$9,$2,$3,0*%
%AMFreePoly0*
4,1,22,0.686777,0.580194,0.756366,0.524698,0.794986,0.444504,0.800000,0.400000,0.800000,0.200000,0.780194,0.113223,0.741421,0.058579,0.141421,-0.541421,0.066056,-0.588777,-0.022393,-0.598742,-0.106406,-0.569345,-0.141421,-0.541421,-0.741421,0.058579,-0.788777,0.133944,-0.800000,0.200000,-0.800000,0.400000,-0.780194,0.486777,-0.724698,0.556366,-0.644504,0.594986,-0.600000,0.600000,
0.600000,0.600000,0.686777,0.580194,0.686777,0.580194,$1*%
%AMFreePoly1*
4,1,26,0.706406,1.169345,0.769345,1.106406,0.798742,1.022393,0.800000,1.000000,0.800000,-0.250000,0.780194,-0.336777,0.724698,-0.406366,0.644504,-0.444986,0.600000,-0.450000,-0.600000,-0.450000,-0.686777,-0.430194,-0.756366,-0.374698,-0.794986,-0.294504,-0.800000,-0.250000,-0.800000,1.000000,-0.780194,1.086777,-0.724698,1.156366,-0.644504,1.194986,-0.555496,1.194986,-0.475302,1.156366,
-0.458579,1.141421,0.000000,0.682842,0.458579,1.141421,0.533944,1.188777,0.622393,1.198742,0.706406,1.169345,0.706406,1.169345,$1*%
G04 Aperture macros list end*
%ADD10C,0.100000*%
%ADD11C,4.600000*%
%ADD12C,2.200000*%
%ADD13C,3.600000*%
%ADD14C,3.800000*%
%ADD15RoundRect,0.200000X-1.300000X1.300000X-1.300000X-1.300000X1.300000X-1.300000X1.300000X1.300000X0*%
%ADD16RoundRect,0.200000X-2.290000X1.300000X-2.290000X-1.300000X2.290000X-1.300000X2.290000X1.300000X0*%
%ADD17O,2.000000X2.500000*%
%ADD18FreePoly0,180.000000*%
%ADD19FreePoly1,180.000000*%
%ADD20C,2.000000*%
%ADD21RoundRect,0.200000X-0.475833X1.775833X-1.775833X-0.475833X0.475833X-1.775833X1.775833X0.475833X0*%
%ADD22RoundRect,0.200000X-1.333198X2.270833X-2.633198X0.019167X1.333198X-2.270833X2.633198X-0.019167X0*%
%ADD23C,1.300000*%
%ADD24C,3.900000*%
%ADD25FreePoly0,90.000000*%
%ADD26FreePoly0,270.000000*%
%ADD27FreePoly1,90.000000*%
%ADD28FreePoly1,270.000000*%
%ADD29C,1.200000*%
%ADD30O,2.600000X2.100000*%
%ADD31RoundRect,0.200000X-0.919239X1.592168X-1.592168X-0.919239X0.919239X-1.592168X1.592168X0.919239X0*%
%ADD32RoundRect,0.200000X-1.875505X1.848399X-2.548435X-0.663008X1.875505X-1.848399X2.548435X0.663008X0*%
G04 APERTURE END LIST*
D10*
X109650000Y-63425000D02*
X108450000Y-63425000D01*
X108450000Y-62575000D01*
X109650000Y-62575000D01*
X109650000Y-63425000D01*
G36*
X109650000Y-63425000D02*
G01*
X108450000Y-63425000D01*
X108450000Y-62575000D01*
X109650000Y-62575000D01*
X109650000Y-63425000D01*
G37*
X106100000Y-63425000D02*
X104900000Y-63425000D01*
X104900000Y-62575000D01*
X106100000Y-62575000D01*
X106100000Y-63425000D01*
G36*
X106100000Y-63425000D02*
G01*
X104900000Y-63425000D01*
X104900000Y-62575000D01*
X106100000Y-62575000D01*
X106100000Y-63425000D01*
G37*
X111933509Y-131354624D02*
X110917509Y-131354624D01*
X110917509Y-130338624D01*
X111933509Y-130338624D01*
X111933509Y-131354624D01*
G36*
X111933509Y-131354624D02*
G01*
X110917509Y-131354624D01*
X110917509Y-130338624D01*
X111933509Y-130338624D01*
X111933509Y-131354624D01*
G37*
X114473509Y-131354624D02*
X113457509Y-131354624D01*
X113457509Y-130338624D01*
X114473509Y-130338624D01*
X114473509Y-131354624D01*
G36*
X114473509Y-131354624D02*
G01*
X113457509Y-131354624D01*
X113457509Y-130338624D01*
X114473509Y-130338624D01*
X114473509Y-131354624D01*
G37*
X117013509Y-131354624D02*
X115997509Y-131354624D01*
X115997509Y-130338624D01*
X117013509Y-130338624D01*
X117013509Y-131354624D01*
G36*
X117013509Y-131354624D02*
G01*
X115997509Y-131354624D01*
X115997509Y-130338624D01*
X117013509Y-130338624D01*
X117013509Y-131354624D01*
G37*
X73600000Y-99175000D02*
X72400000Y-99175000D01*
X72400000Y-98325000D01*
X73600000Y-98325000D01*
X73600000Y-99175000D01*
G36*
X73600000Y-99175000D02*
G01*
X72400000Y-99175000D01*
X72400000Y-98325000D01*
X73600000Y-98325000D01*
X73600000Y-99175000D01*
G37*
X70050000Y-99175000D02*
X68850000Y-99175000D01*
X68850000Y-98325000D01*
X70050000Y-98325000D01*
X70050000Y-99175000D01*
G36*
X70050000Y-99175000D02*
G01*
X68850000Y-99175000D01*
X68850000Y-98325000D01*
X70050000Y-98325000D01*
X70050000Y-99175000D01*
G37*
X173180034Y-122352819D02*
X171580034Y-122352819D01*
X171580034Y-121552819D01*
X173180034Y-121552819D01*
X173180034Y-122352819D01*
G36*
X173180034Y-122352819D02*
G01*
X171580034Y-122352819D01*
X171580034Y-121552819D01*
X173180034Y-121552819D01*
X173180034Y-122352819D01*
G37*
X173180034Y-118952819D02*
X171580034Y-118952819D01*
X171580034Y-118152819D01*
X173180034Y-118152819D01*
X173180034Y-118952819D01*
G36*
X173180034Y-118952819D02*
G01*
X171580034Y-118952819D01*
X171580034Y-118152819D01*
X173180034Y-118152819D01*
X173180034Y-118952819D01*
G37*
X73350000Y-82175000D02*
X72150000Y-82175000D01*
X72150000Y-81325000D01*
X73350000Y-81325000D01*
X73350000Y-82175000D01*
G36*
X73350000Y-82175000D02*
G01*
X72150000Y-82175000D01*
X72150000Y-81325000D01*
X73350000Y-81325000D01*
X73350000Y-82175000D01*
G37*
X69800000Y-82175000D02*
X68600000Y-82175000D01*
X68600000Y-81325000D01*
X69800000Y-81325000D01*
X69800000Y-82175000D01*
G36*
X69800000Y-82175000D02*
G01*
X68600000Y-82175000D01*
X68600000Y-81325000D01*
X69800000Y-81325000D01*
X69800000Y-82175000D01*
G37*
X168990258Y-87450219D02*
X168090258Y-87450219D01*
X168090258Y-86750219D01*
X168990258Y-86750219D01*
X168990258Y-87450219D01*
G36*
X168990258Y-87450219D02*
G01*
X168090258Y-87450219D01*
X168090258Y-86750219D01*
X168990258Y-86750219D01*
X168990258Y-87450219D01*
G37*
X168990258Y-85250219D02*
X168090258Y-85250219D01*
X168090258Y-84550219D01*
X168990258Y-84550219D01*
X168990258Y-85250219D01*
G36*
X168990258Y-85250219D02*
G01*
X168090258Y-85250219D01*
X168090258Y-84550219D01*
X168990258Y-84550219D01*
X168990258Y-85250219D01*
G37*
X167440258Y-88450219D02*
X166840258Y-88450219D01*
X166840258Y-87050219D01*
X167440258Y-87050219D01*
X167440258Y-88450219D01*
G36*
X167440258Y-88450219D02*
G01*
X166840258Y-88450219D01*
X166840258Y-87050219D01*
X167440258Y-87050219D01*
X167440258Y-88450219D01*
G37*
X165940258Y-88450219D02*
X165340258Y-88450219D01*
X165340258Y-87050219D01*
X165940258Y-87050219D01*
X165940258Y-88450219D01*
G36*
X165940258Y-88450219D02*
G01*
X165340258Y-88450219D01*
X165340258Y-87050219D01*
X165940258Y-87050219D01*
X165940258Y-88450219D01*
G37*
X162940258Y-88450219D02*
X162340258Y-88450219D01*
X162340258Y-87050219D01*
X162940258Y-87050219D01*
X162940258Y-88450219D01*
G36*
X162940258Y-88450219D02*
G01*
X162340258Y-88450219D01*
X162340258Y-87050219D01*
X162940258Y-87050219D01*
X162940258Y-88450219D01*
G37*
X161690258Y-87450219D02*
X160790258Y-87450219D01*
X160790258Y-86750219D01*
X161690258Y-86750219D01*
X161690258Y-87450219D01*
G36*
X161690258Y-87450219D02*
G01*
X160790258Y-87450219D01*
X160790258Y-86750219D01*
X161690258Y-86750219D01*
X161690258Y-87450219D01*
G37*
X161690258Y-85250219D02*
X160790258Y-85250219D01*
X160790258Y-84550219D01*
X161690258Y-84550219D01*
X161690258Y-85250219D01*
G36*
X161690258Y-85250219D02*
G01*
X160790258Y-85250219D01*
X160790258Y-84550219D01*
X161690258Y-84550219D01*
X161690258Y-85250219D01*
G37*
X145850000Y-107825000D02*
X144650000Y-107825000D01*
X144650000Y-106975000D01*
X145850000Y-106975000D01*
X145850000Y-107825000D01*
G36*
X145850000Y-107825000D02*
G01*
X144650000Y-107825000D01*
X144650000Y-106975000D01*
X145850000Y-106975000D01*
X145850000Y-107825000D01*
G37*
X142300000Y-107825000D02*
X141100000Y-107825000D01*
X141100000Y-106975000D01*
X142300000Y-106975000D01*
X142300000Y-107825000D01*
G36*
X142300000Y-107825000D02*
G01*
X141100000Y-107825000D01*
X141100000Y-106975000D01*
X142300000Y-106975000D01*
X142300000Y-107825000D01*
G37*
X127600000Y-70175000D02*
X126400000Y-70175000D01*
X126400000Y-69325000D01*
X127600000Y-69325000D01*
X127600000Y-70175000D01*
G36*
X127600000Y-70175000D02*
G01*
X126400000Y-70175000D01*
X126400000Y-69325000D01*
X127600000Y-69325000D01*
X127600000Y-70175000D01*
G37*
X124050000Y-70175000D02*
X122850000Y-70175000D01*
X122850000Y-69325000D01*
X124050000Y-69325000D01*
X124050000Y-70175000D01*
G36*
X124050000Y-70175000D02*
G01*
X122850000Y-70175000D01*
X122850000Y-69325000D01*
X124050000Y-69325000D01*
X124050000Y-70175000D01*
G37*
X109625000Y-81175000D02*
X108425000Y-81175000D01*
X108425000Y-80325000D01*
X109625000Y-80325000D01*
X109625000Y-81175000D01*
G36*
X109625000Y-81175000D02*
G01*
X108425000Y-81175000D01*
X108425000Y-80325000D01*
X109625000Y-80325000D01*
X109625000Y-81175000D01*
G37*
X106075000Y-81175000D02*
X104875000Y-81175000D01*
X104875000Y-80325000D01*
X106075000Y-80325000D01*
X106075000Y-81175000D01*
G36*
X106075000Y-81175000D02*
G01*
X104875000Y-81175000D01*
X104875000Y-80325000D01*
X106075000Y-80325000D01*
X106075000Y-81175000D01*
G37*
X127600000Y-87425000D02*
X126400000Y-87425000D01*
X126400000Y-86575000D01*
X127600000Y-86575000D01*
X127600000Y-87425000D01*
G36*
X127600000Y-87425000D02*
G01*
X126400000Y-87425000D01*
X126400000Y-86575000D01*
X127600000Y-86575000D01*
X127600000Y-87425000D01*
G37*
X124050000Y-87425000D02*
X122850000Y-87425000D01*
X122850000Y-86575000D01*
X124050000Y-86575000D01*
X124050000Y-87425000D01*
G36*
X124050000Y-87425000D02*
G01*
X122850000Y-87425000D01*
X122850000Y-86575000D01*
X124050000Y-86575000D01*
X124050000Y-87425000D01*
G37*
X145600000Y-72925000D02*
X144400000Y-72925000D01*
X144400000Y-72075000D01*
X145600000Y-72075000D01*
X145600000Y-72925000D01*
G36*
X145600000Y-72925000D02*
G01*
X144400000Y-72925000D01*
X144400000Y-72075000D01*
X145600000Y-72075000D01*
X145600000Y-72925000D01*
G37*
X142050000Y-72925000D02*
X140850000Y-72925000D01*
X140850000Y-72075000D01*
X142050000Y-72075000D01*
X142050000Y-72925000D01*
G36*
X142050000Y-72925000D02*
G01*
X140850000Y-72925000D01*
X140850000Y-72075000D01*
X142050000Y-72075000D01*
X142050000Y-72925000D01*
G37*
X159810259Y-88401222D02*
X158794259Y-88401222D01*
X158794259Y-87385222D01*
X159810259Y-87385222D01*
X159810259Y-88401222D01*
G36*
X159810259Y-88401222D02*
G01*
X158794259Y-88401222D01*
X158794259Y-87385222D01*
X159810259Y-87385222D01*
X159810259Y-88401222D01*
G37*
X159810259Y-90941222D02*
X158794259Y-90941222D01*
X158794259Y-89925222D01*
X159810259Y-89925222D01*
X159810259Y-90941222D01*
G36*
X159810259Y-90941222D02*
G01*
X158794259Y-90941222D01*
X158794259Y-89925222D01*
X159810259Y-89925222D01*
X159810259Y-90941222D01*
G37*
X159810259Y-93481222D02*
X158794259Y-93481222D01*
X158794259Y-92465222D01*
X159810259Y-92465222D01*
X159810259Y-93481222D01*
G36*
X159810259Y-93481222D02*
G01*
X158794259Y-93481222D01*
X158794259Y-92465222D01*
X159810259Y-92465222D01*
X159810259Y-93481222D01*
G37*
X159810259Y-96021222D02*
X158794259Y-96021222D01*
X158794259Y-95005222D01*
X159810259Y-95005222D01*
X159810259Y-96021222D01*
G36*
X159810259Y-96021222D02*
G01*
X158794259Y-96021222D01*
X158794259Y-95005222D01*
X159810259Y-95005222D01*
X159810259Y-96021222D01*
G37*
X159810259Y-98561222D02*
X158794259Y-98561222D01*
X158794259Y-97545222D01*
X159810259Y-97545222D01*
X159810259Y-98561222D01*
G36*
X159810259Y-98561222D02*
G01*
X158794259Y-98561222D01*
X158794259Y-97545222D01*
X159810259Y-97545222D01*
X159810259Y-98561222D01*
G37*
X159810259Y-101101222D02*
X158794259Y-101101222D01*
X158794259Y-100085222D01*
X159810259Y-100085222D01*
X159810259Y-101101222D01*
G36*
X159810259Y-101101222D02*
G01*
X158794259Y-101101222D01*
X158794259Y-100085222D01*
X159810259Y-100085222D01*
X159810259Y-101101222D01*
G37*
X159810259Y-103641222D02*
X158794259Y-103641222D01*
X158794259Y-102625222D01*
X159810259Y-102625222D01*
X159810259Y-103641222D01*
G36*
X159810259Y-103641222D02*
G01*
X158794259Y-103641222D01*
X158794259Y-102625222D01*
X159810259Y-102625222D01*
X159810259Y-103641222D01*
G37*
X159810259Y-106181222D02*
X158794259Y-106181222D01*
X158794259Y-105165222D01*
X159810259Y-105165222D01*
X159810259Y-106181222D01*
G36*
X159810259Y-106181222D02*
G01*
X158794259Y-106181222D01*
X158794259Y-105165222D01*
X159810259Y-105165222D01*
X159810259Y-106181222D01*
G37*
X159810259Y-108721222D02*
X158794259Y-108721222D01*
X158794259Y-107705222D01*
X159810259Y-107705222D01*
X159810259Y-108721222D01*
G36*
X159810259Y-108721222D02*
G01*
X158794259Y-108721222D01*
X158794259Y-107705222D01*
X159810259Y-107705222D01*
X159810259Y-108721222D01*
G37*
X159810259Y-111261222D02*
X158794259Y-111261222D01*
X158794259Y-110245222D01*
X159810259Y-110245222D01*
X159810259Y-111261222D01*
G36*
X159810259Y-111261222D02*
G01*
X158794259Y-111261222D01*
X158794259Y-110245222D01*
X159810259Y-110245222D01*
X159810259Y-111261222D01*
G37*
X159810259Y-113801222D02*
X158794259Y-113801222D01*
X158794259Y-112785222D01*
X159810259Y-112785222D01*
X159810259Y-113801222D01*
G36*
X159810259Y-113801222D02*
G01*
X158794259Y-113801222D01*
X158794259Y-112785222D01*
X159810259Y-112785222D01*
X159810259Y-113801222D01*
G37*
X159810259Y-116341222D02*
X158794259Y-116341222D01*
X158794259Y-115325222D01*
X159810259Y-115325222D01*
X159810259Y-116341222D01*
G36*
X159810259Y-116341222D02*
G01*
X158794259Y-116341222D01*
X158794259Y-115325222D01*
X159810259Y-115325222D01*
X159810259Y-116341222D01*
G37*
X170986259Y-88401222D02*
X169970259Y-88401222D01*
X169970259Y-87385222D01*
X170986259Y-87385222D01*
X170986259Y-88401222D01*
G36*
X170986259Y-88401222D02*
G01*
X169970259Y-88401222D01*
X169970259Y-87385222D01*
X170986259Y-87385222D01*
X170986259Y-88401222D01*
G37*
X170986259Y-90941222D02*
X169970259Y-90941222D01*
X169970259Y-89925222D01*
X170986259Y-89925222D01*
X170986259Y-90941222D01*
G36*
X170986259Y-90941222D02*
G01*
X169970259Y-90941222D01*
X169970259Y-89925222D01*
X170986259Y-89925222D01*
X170986259Y-90941222D01*
G37*
X170986259Y-93481222D02*
X169970259Y-93481222D01*
X169970259Y-92465222D01*
X170986259Y-92465222D01*
X170986259Y-93481222D01*
G36*
X170986259Y-93481222D02*
G01*
X169970259Y-93481222D01*
X169970259Y-92465222D01*
X170986259Y-92465222D01*
X170986259Y-93481222D01*
G37*
X170986259Y-96021222D02*
X169970259Y-96021222D01*
X169970259Y-95005222D01*
X170986259Y-95005222D01*
X170986259Y-96021222D01*
G36*
X170986259Y-96021222D02*
G01*
X169970259Y-96021222D01*
X169970259Y-95005222D01*
X170986259Y-95005222D01*
X170986259Y-96021222D01*
G37*
X170986259Y-98561222D02*
X169970259Y-98561222D01*
X169970259Y-97545222D01*
X170986259Y-97545222D01*
X170986259Y-98561222D01*
G36*
X170986259Y-98561222D02*
G01*
X169970259Y-98561222D01*
X169970259Y-97545222D01*
X170986259Y-97545222D01*
X170986259Y-98561222D01*
G37*
X170986259Y-101101222D02*
X169970259Y-101101222D01*
X169970259Y-100085222D01*
X170986259Y-100085222D01*
X170986259Y-101101222D01*
G36*
X170986259Y-101101222D02*
G01*
X169970259Y-101101222D01*
X169970259Y-100085222D01*
X170986259Y-100085222D01*
X170986259Y-101101222D01*
G37*
X170986259Y-103641222D02*
X169970259Y-103641222D01*
X169970259Y-102625222D01*
X170986259Y-102625222D01*
X170986259Y-103641222D01*
G36*
X170986259Y-103641222D02*
G01*
X169970259Y-103641222D01*
X169970259Y-102625222D01*
X170986259Y-102625222D01*
X170986259Y-103641222D01*
G37*
X170986259Y-106181222D02*
X169970259Y-106181222D01*
X169970259Y-105165222D01*
X170986259Y-105165222D01*
X170986259Y-106181222D01*
G36*
X170986259Y-106181222D02*
G01*
X169970259Y-106181222D01*
X169970259Y-105165222D01*
X170986259Y-105165222D01*
X170986259Y-106181222D01*
G37*
X170986259Y-108721222D02*
X169970259Y-108721222D01*
X169970259Y-107705222D01*
X170986259Y-107705222D01*
X170986259Y-108721222D01*
G36*
X170986259Y-108721222D02*
G01*
X169970259Y-108721222D01*
X169970259Y-107705222D01*
X170986259Y-107705222D01*
X170986259Y-108721222D01*
G37*
X170986259Y-111261222D02*
X169970259Y-111261222D01*
X169970259Y-110245222D01*
X170986259Y-110245222D01*
X170986259Y-111261222D01*
G36*
X170986259Y-111261222D02*
G01*
X169970259Y-111261222D01*
X169970259Y-110245222D01*
X170986259Y-110245222D01*
X170986259Y-111261222D01*
G37*
X170986259Y-113801222D02*
X169970259Y-113801222D01*
X169970259Y-112785222D01*
X170986259Y-112785222D01*
X170986259Y-113801222D01*
G36*
X170986259Y-113801222D02*
G01*
X169970259Y-113801222D01*
X169970259Y-112785222D01*
X170986259Y-112785222D01*
X170986259Y-113801222D01*
G37*
X170986259Y-116341222D02*
X169970259Y-116341222D01*
X169970259Y-115325222D01*
X170986259Y-115325222D01*
X170986259Y-116341222D01*
G36*
X170986259Y-116341222D02*
G01*
X169970259Y-116341222D01*
X169970259Y-115325222D01*
X170986259Y-115325222D01*
X170986259Y-116341222D01*
G37*
X73900000Y-115675000D02*
X72700000Y-115675000D01*
X72700000Y-114825000D01*
X73900000Y-114825000D01*
X73900000Y-115675000D01*
G36*
X73900000Y-115675000D02*
G01*
X72700000Y-115675000D01*
X72700000Y-114825000D01*
X73900000Y-114825000D01*
X73900000Y-115675000D01*
G37*
X70350000Y-115675000D02*
X69150000Y-115675000D01*
X69150000Y-114825000D01*
X70350000Y-114825000D01*
X70350000Y-115675000D01*
G36*
X70350000Y-115675000D02*
G01*
X69150000Y-115675000D01*
X69150000Y-114825000D01*
X70350000Y-114825000D01*
X70350000Y-115675000D01*
G37*
X161588438Y-119348911D02*
X160572438Y-119348911D01*
X160572438Y-118332911D01*
X161588438Y-118332911D01*
X161588438Y-119348911D01*
G36*
X161588438Y-119348911D02*
G01*
X160572438Y-119348911D01*
X160572438Y-118332911D01*
X161588438Y-118332911D01*
X161588438Y-119348911D01*
G37*
X164128438Y-119348911D02*
X163112438Y-119348911D01*
X163112438Y-118332911D01*
X164128438Y-118332911D01*
X164128438Y-119348911D01*
G36*
X164128438Y-119348911D02*
G01*
X163112438Y-119348911D01*
X163112438Y-118332911D01*
X164128438Y-118332911D01*
X164128438Y-119348911D01*
G37*
X166668438Y-119348911D02*
X165652438Y-119348911D01*
X165652438Y-118332911D01*
X166668438Y-118332911D01*
X166668438Y-119348911D01*
G36*
X166668438Y-119348911D02*
G01*
X165652438Y-119348911D01*
X165652438Y-118332911D01*
X166668438Y-118332911D01*
X166668438Y-119348911D01*
G37*
X169208438Y-119348911D02*
X168192438Y-119348911D01*
X168192438Y-118332911D01*
X169208438Y-118332911D01*
X169208438Y-119348911D01*
G36*
X169208438Y-119348911D02*
G01*
X168192438Y-119348911D01*
X168192438Y-118332911D01*
X169208438Y-118332911D01*
X169208438Y-119348911D01*
G37*
X127700400Y-105675000D02*
X126500400Y-105675000D01*
X126500400Y-104825000D01*
X127700400Y-104825000D01*
X127700400Y-105675000D01*
G36*
X127700400Y-105675000D02*
G01*
X126500400Y-105675000D01*
X126500400Y-104825000D01*
X127700400Y-104825000D01*
X127700400Y-105675000D01*
G37*
X124150400Y-105675000D02*
X122950400Y-105675000D01*
X122950400Y-104825000D01*
X124150400Y-104825000D01*
X124150400Y-105675000D01*
G36*
X124150400Y-105675000D02*
G01*
X122950400Y-105675000D01*
X122950400Y-104825000D01*
X124150400Y-104825000D01*
X124150400Y-105675000D01*
G37*
X117600000Y-123425000D02*
X116400000Y-123425000D01*
X116400000Y-122575000D01*
X117600000Y-122575000D01*
X117600000Y-123425000D01*
G36*
X117600000Y-123425000D02*
G01*
X116400000Y-123425000D01*
X116400000Y-122575000D01*
X117600000Y-122575000D01*
X117600000Y-123425000D01*
G37*
X114050000Y-123425000D02*
X112850000Y-123425000D01*
X112850000Y-122575000D01*
X114050000Y-122575000D01*
X114050000Y-123425000D01*
G36*
X114050000Y-123425000D02*
G01*
X112850000Y-123425000D01*
X112850000Y-122575000D01*
X114050000Y-122575000D01*
X114050000Y-123425000D01*
G37*
X91600000Y-86925000D02*
X90400000Y-86925000D01*
X90400000Y-86075000D01*
X91600000Y-86075000D01*
X91600000Y-86925000D01*
G36*
X91600000Y-86925000D02*
G01*
X90400000Y-86925000D01*
X90400000Y-86075000D01*
X91600000Y-86075000D01*
X91600000Y-86925000D01*
G37*
X88050000Y-86925000D02*
X86850000Y-86925000D01*
X86850000Y-86075000D01*
X88050000Y-86075000D01*
X88050000Y-86925000D01*
G36*
X88050000Y-86925000D02*
G01*
X86850000Y-86925000D01*
X86850000Y-86075000D01*
X88050000Y-86075000D01*
X88050000Y-86925000D01*
G37*
X91600000Y-103875000D02*
X90400000Y-103875000D01*
X90400000Y-103025000D01*
X91600000Y-103025000D01*
X91600000Y-103875000D01*
G36*
X91600000Y-103875000D02*
G01*
X90400000Y-103875000D01*
X90400000Y-103025000D01*
X91600000Y-103025000D01*
X91600000Y-103875000D01*
G37*
X88050000Y-103875000D02*
X86850000Y-103875000D01*
X86850000Y-103025000D01*
X88050000Y-103025000D01*
X88050000Y-103875000D01*
G36*
X88050000Y-103875000D02*
G01*
X86850000Y-103875000D01*
X86850000Y-103025000D01*
X88050000Y-103025000D01*
X88050000Y-103875000D01*
G37*
X109700400Y-98675000D02*
X108500400Y-98675000D01*
X108500400Y-97825000D01*
X109700400Y-97825000D01*
X109700400Y-98675000D01*
G36*
X109700400Y-98675000D02*
G01*
X108500400Y-98675000D01*
X108500400Y-97825000D01*
X109700400Y-97825000D01*
X109700400Y-98675000D01*
G37*
X106150400Y-98675000D02*
X104950400Y-98675000D01*
X104950400Y-97825000D01*
X106150400Y-97825000D01*
X106150400Y-98675000D01*
G36*
X106150400Y-98675000D02*
G01*
X104950400Y-98675000D01*
X104950400Y-97825000D01*
X106150400Y-97825000D01*
X106150400Y-98675000D01*
G37*
X158857431Y-119651406D02*
X156857431Y-119651406D01*
X156857431Y-118251406D01*
X158857431Y-118251406D01*
X158857431Y-119651406D01*
G36*
X158857431Y-119651406D02*
G01*
X156857431Y-119651406D01*
X156857431Y-118251406D01*
X158857431Y-118251406D01*
X158857431Y-119651406D01*
G37*
X158857431Y-121851406D02*
X156857431Y-121851406D01*
X156857431Y-120451406D01*
X158857431Y-120451406D01*
X158857431Y-121851406D01*
G36*
X158857431Y-121851406D02*
G01*
X156857431Y-121851406D01*
X156857431Y-120451406D01*
X158857431Y-120451406D01*
X158857431Y-121851406D01*
G37*
X91600000Y-70175000D02*
X90400000Y-70175000D01*
X90400000Y-69325000D01*
X91600000Y-69325000D01*
X91600000Y-70175000D01*
G36*
X91600000Y-70175000D02*
G01*
X90400000Y-70175000D01*
X90400000Y-69325000D01*
X91600000Y-69325000D01*
X91600000Y-70175000D01*
G37*
X88050000Y-70175000D02*
X86850000Y-70175000D01*
X86850000Y-69325000D01*
X88050000Y-69325000D01*
X88050000Y-70175000D01*
G36*
X88050000Y-70175000D02*
G01*
X86850000Y-70175000D01*
X86850000Y-69325000D01*
X88050000Y-69325000D01*
X88050000Y-70175000D01*
G37*
X148543061Y-127818495D02*
X147943061Y-128857725D01*
X147206939Y-128432725D01*
X147806939Y-127393495D01*
X148543061Y-127818495D01*
G36*
X148543061Y-127818495D02*
G01*
X147943061Y-128857725D01*
X147206939Y-128432725D01*
X147806939Y-127393495D01*
X148543061Y-127818495D01*
G37*
X146768061Y-130892885D02*
X146168061Y-131932115D01*
X145431939Y-131507115D01*
X146031939Y-130467885D01*
X146768061Y-130892885D01*
G36*
X146768061Y-130892885D02*
G01*
X146168061Y-131932115D01*
X145431939Y-131507115D01*
X146031939Y-130467885D01*
X146768061Y-130892885D01*
G37*
X138939554Y-124744773D02*
X138719558Y-125565810D01*
X137560447Y-125255227D01*
X137780443Y-124434190D01*
X138939554Y-124744773D01*
G36*
X138939554Y-124744773D02*
G01*
X138719558Y-125565810D01*
X137560447Y-125255227D01*
X137780443Y-124434190D01*
X138939554Y-124744773D01*
G37*
X135510517Y-123825965D02*
X135290521Y-124647002D01*
X134131410Y-124336419D01*
X134351406Y-123515382D01*
X135510517Y-123825965D01*
G36*
X135510517Y-123825965D02*
G01*
X135290521Y-124647002D01*
X134131410Y-124336419D01*
X134351406Y-123515382D01*
X135510517Y-123825965D01*
G37*
X145850000Y-89675000D02*
X144650000Y-89675000D01*
X144650000Y-88825000D01*
X145850000Y-88825000D01*
X145850000Y-89675000D01*
G36*
X145850000Y-89675000D02*
G01*
X144650000Y-89675000D01*
X144650000Y-88825000D01*
X145850000Y-88825000D01*
X145850000Y-89675000D01*
G37*
X142300000Y-89675000D02*
X141100000Y-89675000D01*
X141100000Y-88825000D01*
X142300000Y-88825000D01*
X142300000Y-89675000D01*
G36*
X142300000Y-89675000D02*
G01*
X141100000Y-89675000D01*
X141100000Y-88825000D01*
X142300000Y-88825000D01*
X142300000Y-89675000D01*
G37*
D11*
X134228545Y-86750000D03*
D12*
X101729546Y-103239471D03*
D13*
X102229546Y-107039471D03*
D14*
X107229546Y-103239471D03*
D13*
X107229546Y-109139471D03*
X112229546Y-107039471D03*
D12*
X112729546Y-103239471D03*
D15*
X110929546Y-109139471D03*
D16*
X99719546Y-106939471D03*
D17*
X111163509Y-132975624D03*
D18*
X111425509Y-131100624D03*
D17*
X111687509Y-132975624D03*
X113703509Y-132975624D03*
D18*
X113965509Y-131100624D03*
D17*
X114227509Y-132975624D03*
X116243509Y-132975624D03*
D18*
X116505509Y-131100624D03*
D17*
X116767509Y-132975624D03*
X118783509Y-132975624D03*
X119307509Y-132975624D03*
D19*
X111425509Y-130084624D03*
X113965509Y-130084624D03*
X116505509Y-130084624D03*
D20*
X108687509Y-134450624D03*
X121783509Y-134450624D03*
D17*
X108687509Y-132350624D03*
X121783509Y-132350624D03*
D11*
X80250000Y-83750000D03*
D12*
X148903370Y-134868092D03*
D13*
X147436383Y-138408989D03*
D14*
X153666510Y-137618092D03*
D13*
X150716510Y-142727642D03*
X156096637Y-143408989D03*
D12*
X158429650Y-140368092D03*
D21*
X153920804Y-144577642D03*
D22*
X145312659Y-137067386D03*
D23*
X166390258Y-86000219D03*
X166390258Y-86000219D03*
X163390258Y-86000219D03*
X163390258Y-86000219D03*
D12*
X65729542Y-121239972D03*
D13*
X66229542Y-125039972D03*
D14*
X71229542Y-121239972D03*
D13*
X71229542Y-127139972D03*
X76229542Y-125039972D03*
D12*
X76729542Y-121239972D03*
D15*
X74929542Y-127139972D03*
D16*
X63719542Y-124939972D03*
D24*
X172281378Y-81999725D03*
D12*
X119728544Y-92739470D03*
D13*
X120228544Y-96539470D03*
D14*
X125228544Y-92739470D03*
D13*
X125228544Y-98639470D03*
X130228544Y-96539470D03*
D12*
X130728544Y-92739470D03*
D15*
X128928544Y-98639470D03*
D16*
X117718544Y-96439470D03*
D24*
X157500056Y-82000182D03*
D12*
X137729546Y-95239475D03*
D13*
X138229546Y-99039475D03*
D14*
X143229546Y-95239475D03*
D13*
X143229546Y-101139475D03*
X148229546Y-99039475D03*
D12*
X148729546Y-95239475D03*
D15*
X146929546Y-101139475D03*
D16*
X135719546Y-98939475D03*
D20*
X157270259Y-87893222D03*
X157270259Y-90433222D03*
X157270259Y-92973222D03*
X157270259Y-95513222D03*
X157270259Y-98053222D03*
X157270259Y-100593222D03*
X157270259Y-103133222D03*
X157270259Y-105673222D03*
X157270259Y-108213222D03*
X157270259Y-110753222D03*
X157270259Y-113293222D03*
X157270259Y-115833222D03*
D25*
X159048259Y-87893222D03*
X159048259Y-90433222D03*
X159048259Y-92973222D03*
X159048259Y-95513222D03*
X159048259Y-98053222D03*
X159048259Y-100593222D03*
X159048259Y-103133222D03*
X159048259Y-105673222D03*
X159048259Y-108213222D03*
X159048259Y-110753222D03*
X159048259Y-113293222D03*
X159048259Y-115833222D03*
D26*
X170732259Y-87893222D03*
X170732259Y-90433222D03*
X170732259Y-92973222D03*
X170732259Y-95513222D03*
X170732259Y-98053222D03*
X170732259Y-100593222D03*
X170732259Y-103133222D03*
X170732259Y-105673222D03*
X170732259Y-108213222D03*
X170732259Y-110753222D03*
X170732259Y-113293222D03*
X170732259Y-115833222D03*
D20*
X172510259Y-87893222D03*
X172510259Y-90433222D03*
X172510259Y-92973222D03*
X172510259Y-95513222D03*
X172510259Y-98053222D03*
X172510259Y-100593222D03*
X172510259Y-103133222D03*
X172510259Y-105673222D03*
X172510259Y-108213222D03*
X172510259Y-110753222D03*
X172510259Y-113293222D03*
X172510259Y-115833222D03*
D27*
X160064259Y-87893222D03*
X160064259Y-90433222D03*
X160064259Y-92973222D03*
X160064259Y-95513222D03*
X160064259Y-98053222D03*
X160064259Y-100593222D03*
X160064259Y-103133222D03*
X160064259Y-105673222D03*
X160064259Y-108213222D03*
X160064259Y-110753222D03*
X160064259Y-113293222D03*
X160064259Y-115833222D03*
D28*
X169716259Y-115833222D03*
X169716259Y-113293222D03*
X169716259Y-110753222D03*
X169716259Y-108213222D03*
X169716259Y-105673222D03*
X169716259Y-103133222D03*
X169716259Y-100593222D03*
X169716259Y-98053222D03*
X169716259Y-95513222D03*
X169716259Y-92973222D03*
X169716259Y-90433222D03*
X169716259Y-87893222D03*
D12*
X65729542Y-87239972D03*
D13*
X66229542Y-91039972D03*
D14*
X71229542Y-87239972D03*
D13*
X71229542Y-93139972D03*
X76229542Y-91039972D03*
D12*
X76729542Y-87239972D03*
D15*
X74929542Y-93139972D03*
D16*
X63719542Y-90939972D03*
D12*
X83729547Y-109239974D03*
D13*
X84229547Y-113039974D03*
D14*
X89229547Y-109239974D03*
D13*
X89229547Y-115139974D03*
X94229547Y-113039974D03*
D12*
X94729547Y-109239974D03*
D15*
X92929547Y-115139974D03*
D16*
X81719547Y-112939974D03*
D29*
X169104707Y-125824920D03*
X162104707Y-125824920D03*
D30*
X159504707Y-123624920D03*
X159504707Y-128024920D03*
X167404707Y-123624920D03*
X167404707Y-128024920D03*
X164404707Y-123624920D03*
X164404707Y-128024920D03*
X160404707Y-123624920D03*
X160404707Y-128024920D03*
D12*
X101729543Y-69239473D03*
D13*
X102229543Y-73039473D03*
D14*
X107229543Y-69239473D03*
D13*
X107229543Y-75139473D03*
X112229543Y-73039473D03*
D12*
X112729543Y-69239473D03*
D15*
X110929543Y-75139473D03*
D16*
X99719543Y-72939473D03*
D12*
X137729546Y-78239472D03*
D13*
X138229546Y-82039472D03*
D14*
X143229546Y-78239472D03*
D13*
X143229546Y-84139472D03*
X148229546Y-82039472D03*
D12*
X148729546Y-78239472D03*
D15*
X146929546Y-84139472D03*
D16*
X135719546Y-81939472D03*
D12*
X65729542Y-104239972D03*
D13*
X66229542Y-108039972D03*
D14*
X71229542Y-104239972D03*
D13*
X71229542Y-110139972D03*
X76229542Y-108039972D03*
D12*
X76729542Y-104239972D03*
D15*
X74929542Y-110139972D03*
D16*
X63719542Y-107939972D03*
D24*
X168386407Y-131897959D03*
D18*
X161080438Y-119094911D03*
D20*
X161080438Y-120752911D03*
D18*
X163620438Y-119094911D03*
D20*
X163620438Y-120752911D03*
D18*
X166160438Y-119094911D03*
D20*
X166160438Y-120752911D03*
D18*
X168700438Y-119094911D03*
D20*
X168700438Y-120752911D03*
D19*
X161080438Y-118078911D03*
X163620438Y-118078911D03*
X166160438Y-118078911D03*
X168700438Y-118078911D03*
D12*
X119728544Y-109739471D03*
D13*
X120228544Y-113539471D03*
D14*
X125228544Y-109739471D03*
D13*
X125228544Y-115639471D03*
X130228544Y-113539471D03*
D12*
X130728544Y-109739471D03*
D15*
X128928544Y-115639471D03*
D16*
X117718544Y-113439471D03*
D12*
X83729547Y-92239968D03*
D13*
X84229547Y-96039968D03*
D14*
X89229547Y-92239968D03*
D13*
X89229547Y-98139968D03*
X94229547Y-96039968D03*
D12*
X94729547Y-92239968D03*
D15*
X92929547Y-98139968D03*
D16*
X81719547Y-95939968D03*
D12*
X119728547Y-75739475D03*
D13*
X120228547Y-79539475D03*
D14*
X125228547Y-75739475D03*
D13*
X125228547Y-81639475D03*
X130228547Y-79539475D03*
D12*
X130728547Y-75739475D03*
D15*
X128928547Y-81639475D03*
D16*
X117718547Y-79439475D03*
D11*
X80250000Y-117750000D03*
D12*
X129815995Y-128515667D03*
D13*
X129315445Y-132315595D03*
D14*
X135128587Y-129939172D03*
D13*
X133601555Y-135638134D03*
X138974704Y-134903785D03*
D12*
X140441179Y-131362677D03*
D31*
X137175480Y-136595765D03*
D32*
X126916854Y-131569367D03*
D12*
X101729546Y-86239470D03*
D13*
X102229546Y-90039470D03*
D14*
X107229546Y-86239470D03*
D13*
X107229546Y-92139470D03*
X112229546Y-90039470D03*
D12*
X112729546Y-86239470D03*
D15*
X110929546Y-92139470D03*
D16*
X99719546Y-89939470D03*
D11*
X148510701Y-123849903D03*
D12*
X137729549Y-112239469D03*
D13*
X138229549Y-116039469D03*
D14*
X143229549Y-112239469D03*
D13*
X143229549Y-118139469D03*
X148229549Y-116039469D03*
D12*
X148729549Y-112239469D03*
D15*
X146929549Y-118139469D03*
D16*
X135719549Y-115939469D03*
D12*
X83729545Y-75239973D03*
D13*
X84229545Y-79039973D03*
D14*
X89229545Y-75239973D03*
D13*
X89229545Y-81139973D03*
X94229545Y-79039973D03*
D12*
X94729545Y-75239973D03*
D15*
X92929545Y-81139973D03*
D16*
X81719545Y-78939973D03*
M02*
