G04 #@! TF.GenerationSoftware,KiCad,Pcbnew,7.0.6*
G04 #@! TF.CreationDate,2023-08-12T13:21:50+01:00*
G04 #@! TF.ProjectId,ferris_sweep,66657272-6973-45f7-9377-6565702e6b69,0.1*
G04 #@! TF.SameCoordinates,Original*
G04 #@! TF.FileFunction,Profile,NP*
%FSLAX46Y46*%
G04 Gerber Fmt 4.6, Leading zero omitted, Abs format (unit mm)*
G04 Created by KiCad (PCBNEW 7.0.6) date 2023-08-12 13:21:50*
%MOMM*%
%LPD*%
G01*
G04 APERTURE LIST*
G04 #@! TA.AperFunction,Profile*
%ADD10C,0.050000*%
G04 #@! TD*
G04 APERTURE END LIST*
D10*
X61188833Y-79869010D02*
X61188833Y-127991349D01*
X153150000Y-78150000D02*
X153145111Y-70933883D01*
X174281315Y-81999689D02*
X174281568Y-121466832D01*
X174281353Y-81999689D02*
G75*
G03*
X172281326Y-79999547I-2000153J-11D01*
G01*
X133616117Y-66633883D02*
X118540222Y-66661837D01*
X116795111Y-61894135D02*
X116795111Y-64867702D01*
X115050000Y-60100000D02*
X99389516Y-60113430D01*
X134866117Y-67883883D02*
G75*
G03*
X133616117Y-66633883I-1250017J-17D01*
G01*
X134866117Y-67883883D02*
G75*
G03*
X136116117Y-69133883I1249983J-17D01*
G01*
X79547715Y-67826168D02*
X79543548Y-76357158D01*
X99389516Y-60113394D02*
G75*
G03*
X97595381Y-61858541I-16J-1794806D01*
G01*
X169781008Y-83749414D02*
G75*
G03*
X170281014Y-83249463I92J499914D01*
G01*
X115235769Y-136194832D02*
X103694979Y-136082549D01*
X77745029Y-78114927D02*
X62983651Y-78123526D01*
X170281014Y-83249463D02*
X170281190Y-81999538D01*
X81900000Y-129800000D02*
X62944009Y-129795833D01*
X157030886Y-149825076D02*
X149229607Y-145303912D01*
X116795088Y-61894135D02*
G75*
G03*
X115050000Y-60100000I-1794788J35D01*
G01*
X154887029Y-80037186D02*
X157500000Y-80000000D01*
X159500000Y-82000133D02*
G75*
G03*
X157500000Y-80000000I-2000100J33D01*
G01*
X153145040Y-70933883D02*
G75*
G03*
X151400000Y-69139748I-1794740J83D01*
G01*
X172480639Y-129591383D02*
G75*
G03*
X174281566Y-121466832I-19080639J8491383D01*
G01*
X151400000Y-69139748D02*
X136116117Y-69133883D01*
X77745029Y-78114920D02*
G75*
G03*
X79543548Y-76357158I-8629J1807820D01*
G01*
X149229606Y-145303913D02*
G75*
G03*
X115235769Y-136194832I-33993836J-58875617D01*
G01*
X159499984Y-82000133D02*
X159500165Y-83250065D01*
X157030888Y-149825073D02*
G75*
G03*
X158055405Y-149550557I375012J649473D01*
G01*
X159500132Y-83250065D02*
G75*
G03*
X160000164Y-83750068I500068J65D01*
G01*
X62983651Y-78123538D02*
G75*
G03*
X61188834Y-79869010I-51J-1795462D01*
G01*
X103694982Y-136082545D02*
G75*
G03*
X81900000Y-129800001I-20857682J-31411955D01*
G01*
X172281326Y-79999490D02*
G75*
G03*
X170281190Y-81999538I-126J-2000010D01*
G01*
X95805865Y-66083289D02*
G75*
G03*
X97600000Y-64338143I-65J1794889D01*
G01*
X97595381Y-61858541D02*
X97600000Y-64338143D01*
X158055405Y-149550557D02*
X172480640Y-129591384D01*
X116795076Y-64867702D02*
G75*
G03*
X118540222Y-66661836I1794824J2D01*
G01*
X95805865Y-66083254D02*
X81352199Y-66070992D01*
X153149941Y-78149997D02*
G75*
G03*
X154887029Y-80037185I1786659J-98503D01*
G01*
X61188775Y-127991349D02*
G75*
G03*
X62944009Y-129795833I1805225J49D01*
G01*
X160000164Y-83750068D02*
X169781008Y-83749464D01*
X81352199Y-66071022D02*
G75*
G03*
X79547715Y-67826168I1J-1805178D01*
G01*
X107987509Y-119900624D02*
X107987509Y-118100624D01*
X108283509Y-120200624D02*
X122383509Y-120200624D01*
X122383509Y-117800624D02*
X108287509Y-117800624D01*
X122683509Y-119900624D02*
X122683509Y-118100624D01*
X108287509Y-117800624D02*
G75*
G03*
X107987509Y-118100624I0J-300000D01*
G01*
X107987509Y-119900624D02*
G75*
G03*
X108287509Y-120200624I300000J0D01*
G01*
X122683509Y-118100624D02*
G75*
G03*
X122383509Y-117800624I-300000J0D01*
G01*
X122383509Y-120200624D02*
G75*
G03*
X122683509Y-119900624I0J300000D01*
G01*
M02*
