M48
; DRILL file {KiCad 7.0.6} date Sat 12 Aug 2023 13:21:44 BST
; FORMAT={-:-/ absolute / inch / decimal}
; #@! TF.CreationDate,2023-08-12T13:21:44+01:00
; #@! TF.GenerationSoftware,Kicad,Pcbnew,7.0.6
; #@! TF.FileFunction,Plated,1,2,PTH
FMAT,2
INCH
; #@! TA.AperFunction,Plated,PTH,ComponentDrill
T1C0.0120
; #@! TA.AperFunction,Plated,PTH,ViaDrill
T2C0.0157
; #@! TA.AperFunction,Plated,PTH,ComponentDrill
T3C0.0394
; #@! TA.AperFunction,Plated,PTH,ComponentDrill
T4C0.0433
; #@! TA.AperFunction,Plated,PTH,ComponentDrill
T5C0.0866
; #@! TA.AperFunction,Plated,PTH,ComponentDrill
T6C0.1181
; #@! TA.AperFunction,Plated,PTH,ComponentDrill
T7C0.1496
%
G90
G05
T1
X2.7677Y-3.2185
X2.7776Y-3.8878
X2.7894Y-4.5374
X2.8209Y-3.2185
X2.8307Y-3.8878
X2.8425Y-4.5374
X3.4862Y-2.746
X3.4862Y-3.4055
X3.4862Y-4.0728
X3.5394Y-2.7461
X3.5394Y-3.4055
X3.5394Y-4.0728
X4.1959Y-3.1791
X4.1969Y-2.4803
X4.1989Y-3.8681
X4.249Y-3.1791
X4.25Y-2.4803
X4.252Y-3.8681
X4.5099Y-4.8425
X4.563Y-4.8425
X4.9036Y-2.746
X4.9036Y-3.4252
X4.9075Y-4.1437
X4.9567Y-2.7461
X4.9567Y-3.4252
X4.9606Y-4.1437
X5.3498Y-4.8963
X5.4011Y-4.91
X5.6122Y-2.8543
X5.6221Y-3.5138
X5.6221Y-4.2283
X5.6653Y-2.8543
X5.6752Y-3.5138
X5.6752Y-4.2283
X5.7736Y-5.1278
X5.8002Y-5.0818
X6.2677Y-4.6831
X6.2677Y-4.7697
X6.7866Y-4.6962
X6.7866Y-4.7726
T2
X4.3868Y-5.071
X4.4229Y-5.0464
X4.5368Y-5.1104
X4.5368Y-5.0604
X5.3031Y-4.7097
X5.9449Y-5.0315
X5.9764Y-4.7795
X6.0157Y-4.7598
X6.0273Y-4.1774
X6.0276Y-4.0787
X6.0276Y-4.1105
X6.0285Y-4.1438
X6.0551Y-4.7559
X6.3411Y-3.9854
X6.3411Y-4.0854
X6.3411Y-3.8854
X6.3411Y-3.7354
X6.3411Y-4.1854
X6.3411Y-4.3354
X6.3411Y-3.8104
X6.3411Y-4.2604
X6.3608Y-4.4104
X6.3608Y-3.6604
X6.3805Y-3.5854
X6.3805Y-4.4854
X6.3805Y-4.1354
X6.3805Y-4.0354
X6.3805Y-4.22
X6.4533Y-3.6858
X6.4626Y-3.5918
X6.4792Y-3.8039
X6.4917Y-3.3543
X6.4917Y-4.6488
X6.4919Y-4.6986
X6.4921Y-3.4095
X6.5007Y-3.9279
X6.5115Y-3.6318
X6.5361Y-3.8505
X6.5421Y-3.5206
X6.5785Y-3.7404
X6.603Y-4.4354
X6.603Y-3.5604
X6.6227Y-4.3604
X6.6227Y-3.6354
X6.6253Y-4.6152
X6.6424Y-4.2104
X6.6424Y-3.7104
X6.6424Y-3.8354
X6.6424Y-4.0354
X6.6424Y-4.1354
X6.6424Y-4.2854
X6.6424Y-3.9354
T4
X4.279Y-5.2933
X4.7946Y-5.2933
X6.1917Y-3.4604
X6.1917Y-3.5604
X6.1917Y-3.6604
X6.1917Y-3.7604
X6.1917Y-3.8604
X6.1917Y-3.9604
X6.1917Y-4.0604
X6.1917Y-4.1604
X6.1917Y-4.2604
X6.1917Y-4.3604
X6.1917Y-4.4604
X6.1917Y-4.5604
X6.3417Y-4.7541
X6.4417Y-4.7541
X6.5417Y-4.7541
X6.6417Y-4.7541
X6.7917Y-3.4604
X6.7917Y-3.5604
X6.7917Y-3.6604
X6.7917Y-3.7604
X6.7917Y-3.8604
X6.7917Y-3.9604
X6.7917Y-4.0604
X6.7917Y-4.1604
X6.7917Y-4.2604
X6.7917Y-4.3604
X6.7917Y-4.4604
X6.7917Y-4.5604
T5
X6.2008Y-3.2284
X6.6294Y-5.1928
X6.7827Y-3.2283
T6
X2.6075Y-3.5843
X2.6075Y-4.2535
X2.6075Y-4.9228
X2.8043Y-3.6669
X2.8043Y-4.3362
X2.8043Y-5.0055
X3.0012Y-3.5843
X3.0012Y-4.2535
X3.0012Y-4.9228
X3.3161Y-3.1118
X3.3161Y-3.7811
X3.3161Y-4.4504
X3.513Y-3.1945
X3.513Y-3.8638
X3.513Y-4.5331
X3.7098Y-3.1118
X3.7098Y-3.7811
X3.7098Y-4.4504
X4.0248Y-2.8756
X4.0248Y-3.5449
X4.0248Y-4.2142
X4.2216Y-2.9582
X4.2216Y-3.6275
X4.2216Y-4.2968
X4.4185Y-2.8756
X4.4185Y-3.5449
X4.4185Y-4.2142
X4.7334Y-3.8008
X4.7334Y-4.4701
X4.7334Y-3.1315
X4.9303Y-3.8834
X4.9303Y-4.5527
X4.9303Y-3.2142
X5.0912Y-5.2093
X5.1271Y-3.8008
X5.1271Y-4.4701
X5.1271Y-3.1315
X5.2599Y-5.3401
X5.4421Y-3.2299
X5.4421Y-3.8992
X5.4421Y-4.5685
X5.4714Y-5.3112
X5.639Y-3.3126
X5.639Y-3.9819
X5.639Y-4.6512
X5.8046Y-5.4492
X5.8358Y-3.2299
X5.8358Y-3.8992
X5.8358Y-4.5685
X5.9337Y-5.6192
X6.1455Y-5.646
T7
X3.1594Y-3.2972
X3.1594Y-4.6358
X5.2846Y-3.4154
X5.8469Y-4.876
T3
G00X6.2699Y-4.8671
M15
G01X6.2896Y-4.8671
M16
G05
G00X6.2699Y-5.0404
M15
G01X6.2896Y-5.0404
M16
G05
G00X6.3053Y-4.8671
M15
G01X6.325Y-4.8671
M16
G05
G00X6.3053Y-5.0404
M15
G01X6.325Y-5.0404
M16
G05
G00X6.4628Y-4.8671
M15
G01X6.4825Y-4.8671
M16
G05
G00X6.4825Y-5.0404
M15
G01X6.4628Y-5.0404
M16
G05
G00X6.5809Y-4.8671
M15
G01X6.6006Y-4.8671
M16
G05
G00X6.6006Y-5.0404
M15
G01X6.5809Y-5.0404
M16
G05
T4
G00X4.279Y-5.2205
M15
G01X4.279Y-5.2008
M16
G05
G00X4.3765Y-5.2451
M15
G01X4.3765Y-5.2254
M16
G05
G00X4.3971Y-5.2254
M15
G01X4.3971Y-5.2451
M16
G05
G00X4.4765Y-5.2451
M15
G01X4.4765Y-5.2254
M16
G05
G00X4.4971Y-5.2254
M15
G01X4.4971Y-5.2451
M16
G05
G00X4.5765Y-5.2451
M15
G01X4.5765Y-5.2254
M16
G05
G00X4.5971Y-5.2254
M15
G01X4.5971Y-5.2451
M16
G05
G00X4.6765Y-5.2451
M15
G01X4.6765Y-5.2254
M16
G05
G00X4.6971Y-5.2254
M15
G01X4.6971Y-5.2451
M16
G05
G00X4.7946Y-5.2008
M15
G01X4.7946Y-5.2205
M16
G05
T0
M30
